<svg width="64" height="64" viewBox="0 0 64 64" fill="none" xmlns="http://www.w3.org/2000/svg">
<path d="M52.9389 25.9785C56.7229 25.9785 60.32 25.9785 64 25.9785C64 30.0759 64 33.987 64 38.053C57.0115 38.2982 50.8827 40.7077 45.9478 45.7702C41.0619 50.7826 38.7025 56.8655 38.645 64C34.276 64 29.9513 64 25.4118 64C25.4118 55.5076 25.4118 46.9353 25.4118 38.1649C16.833 38.1649 8.46404 38.1649 0 38.1649C0 34.0635 0 30.1596 0 26.215C15.5809 24.4846 24.1177 15.8211 25.5326 0C29.7718 0 34.0984 0 38.6121 0C38.6121 8.60461 38.6121 17.1824 38.6121 25.9785C43.4472 25.9785 48.0995 25.9785 52.9389 25.9785Z" fill="white"/>
</svg>
