<svg width="24" height="24" viewBox="0 0 24 24" fill="none" xmlns="http://www.w3.org/2000/svg">
<path d="M12 0C5.376 0 0 5.376 0 12C0 18.624 5.376 24 12 24C18.624 24 24 18.624 24 12C24 5.376 18.624 0 12 0ZM16.236 13.236L12.636 16.836C12.456 17.016 12.228 17.1 12 17.1C11.772 17.1 11.544 17.016 11.364 16.836L7.764 13.236C7.416 12.888 7.416 12.312 7.764 11.964C8.112 11.616 8.688 11.616 9.036 11.964L11.1 14.028V7.8C11.1 7.308 11.508 6.9 12 6.9C12.492 6.9 12.9 7.308 12.9 7.8V14.028L14.964 11.964C15.312 11.616 15.888 11.616 16.236 11.964C16.584 12.312 16.584 12.888 16.236 13.236Z" fill="white"/>
</svg>
