<svg width="24" height="24" viewBox="0 0 24 24" fill="none" xmlns="http://www.w3.org/2000/svg">
<path d="M12 0C5.376 0 0 5.376 0 12C0 18.624 5.376 24 12 24C18.624 24 24 18.624 24 12C24 5.376 18.624 0 12 0ZM5.52 11.076C5.724 9.648 6.36 8.364 7.356 7.356C9.756 4.968 13.536 4.836 16.104 6.924V5.784C16.104 5.292 16.512 4.884 17.004 4.884C17.496 4.884 17.904 5.292 17.904 5.784V8.988C17.904 9.48 17.496 9.888 17.004 9.888H13.8C13.308 9.888 12.9 9.48 12.9 8.988C12.9 8.496 13.308 8.088 13.8 8.088H14.7C12.84 6.792 10.272 6.972 8.616 8.628C7.896 9.348 7.44 10.284 7.284 11.328C7.224 11.772 6.84 12.096 6.396 12.096C6.348 12.096 6.312 12.096 6.264 12.084C5.796 12.024 5.448 11.568 5.52 11.076ZM16.644 16.644C15.36 17.928 13.68 18.564 12 18.564C10.536 18.564 9.084 18.048 7.884 17.076V18.204C7.884 18.696 7.476 19.104 6.984 19.104C6.492 19.104 6.084 18.696 6.084 18.204V15C6.084 14.508 6.492 14.1 6.984 14.1H10.188C10.68 14.1 11.088 14.508 11.088 15C11.088 15.492 10.68 15.9 10.188 15.9H9.288C11.148 17.196 13.716 17.016 15.372 15.36C16.092 14.64 16.548 13.704 16.704 12.66C16.776 12.168 17.22 11.82 17.724 11.892C18.216 11.964 18.552 12.42 18.492 12.912C18.276 14.364 17.64 15.648 16.644 16.644Z" fill="white"/>
</svg>
